<?xml version="1.0" encoding="utf-8" standalone="no"?>
<!DOCTYPE svg PUBLIC "-//W3C//DTD SVG 1.1//EN"
  "http://www.w3.org/Graphics/SVG/1.1/DTD/svg11.dtd">
<svg height="288pt" version="1.1" viewBox="0 0 720 288" width="720pt" xmlns="http://www.w3.org/2000/svg" xmlns:xlink="http://www.w3.org/1999/xlink">
 <metadata>
  <rdf:RDF xmlns:cc="http://creativecommons.org/ns#" xmlns:dc="http://purl.org/dc/elements/1.1/" xmlns:rdf="http://www.w3.org/1999/02/22-rdf-syntax-ns#">
   <cc:Work>
    <dc:type rdf:resource="http://purl.org/dc/dcmitype/StillImage"/>
    <dc:date>2023-06-09T14:09:39.975216</dc:date>
    <dc:format>image/svg+xml</dc:format>
    <dc:creator>
     <cc:Agent>
      <dc:title>Matplotlib v3.4.1, https://matplotlib.org/</dc:title>
     </cc:Agent>
    </dc:creator>
   </cc:Work>
  </rdf:RDF>
 </metadata>
 <defs>
  <style type="text/css">*{stroke-linecap:butt;stroke-linejoin:round;}</style>
 </defs>
 <g id="figure_1">
  <g id="patch_1">
   <path d="M 0 288 
L 720 288 
L 720 0 
L 0 0 
z
" style="fill:#ffffff;"/>
  </g>
  <g id="axes_1">
   <g id="patch_2">
    <path d="M 90 256.32 
L 648 256.32 
L 648 34.56 
L 90 34.56 
z
" style="fill:#ffffff;"/>
   </g>
   <g id="matplotlib.axis_1">
    <g id="xtick_1">
     <g id="line2d_1">
      <path clip-path="url(#peb4c4f7331)" d="M 115.363636 256.32 
L 115.363636 34.56 
" style="fill:none;stroke:#b0b0b0;stroke-dasharray:2.96,1.28;stroke-dashoffset:0;stroke-width:0.8;"/>
     </g>
     <g id="line2d_2">
      <defs>
       <path d="M 0 0 
L 0 3.5 
" id="mdb174d2029" style="stroke:#000000;stroke-width:0.8;"/>
      </defs>
      <g>
       <use style="stroke:#000000;stroke-width:0.8;" x="115.363636" xlink:href="#mdb174d2029" y="256.32"/>
      </g>
     </g>
     <g id="text_1">
      <!-- 10 -->
      <g transform="translate(108.690511 271.909375)scale(0.12 -0.12)">
       <defs>
        <path d="M 2519 0 
L 1641 0 
L 1641 3309 
Q 1159 2859 506 2644 
L 506 3441 
Q 850 3553 1253 3867 
Q 1656 4181 1806 4600 
L 2519 4600 
L 2519 0 
z
" id="Arial-BoldMT-31" transform="scale(0.015625)"/>
        <path d="M 1756 4600 
Q 2422 4600 2797 4125 
Q 3244 3563 3244 2259 
Q 3244 959 2794 391 
Q 2422 -78 1756 -78 
Q 1088 -78 678 436 
Q 269 950 269 2269 
Q 269 3563 719 4131 
Q 1091 4600 1756 4600 
z
M 1756 3872 
Q 1597 3872 1472 3770 
Q 1347 3669 1278 3406 
Q 1188 3066 1188 2259 
Q 1188 1453 1269 1151 
Q 1350 850 1473 750 
Q 1597 650 1756 650 
Q 1916 650 2041 751 
Q 2166 853 2234 1116 
Q 2325 1453 2325 2259 
Q 2325 3066 2244 3367 
Q 2163 3669 2039 3770 
Q 1916 3872 1756 3872 
z
" id="Arial-BoldMT-30" transform="scale(0.015625)"/>
       </defs>
       <use xlink:href="#Arial-BoldMT-31"/>
       <use x="55.615234" xlink:href="#Arial-BoldMT-30"/>
      </g>
     </g>
    </g>
    <g id="xtick_2">
     <g id="line2d_3">
      <path clip-path="url(#peb4c4f7331)" d="M 178.772727 256.32 
L 178.772727 34.56 
" style="fill:none;stroke:#b0b0b0;stroke-dasharray:2.96,1.28;stroke-dashoffset:0;stroke-width:0.8;"/>
     </g>
     <g id="line2d_4">
      <g>
       <use style="stroke:#000000;stroke-width:0.8;" x="178.772727" xlink:href="#mdb174d2029" y="256.32"/>
      </g>
     </g>
     <g id="text_2">
      <!-- 20 -->
      <g transform="translate(172.099602 271.909375)scale(0.12 -0.12)">
       <defs>
        <path d="M 3238 816 
L 3238 0 
L 159 0 
Q 209 463 459 877 
Q 709 1291 1447 1975 
Q 2041 2528 2175 2725 
Q 2356 2997 2356 3263 
Q 2356 3556 2198 3714 
Q 2041 3872 1763 3872 
Q 1488 3872 1325 3706 
Q 1163 3541 1138 3156 
L 263 3244 
Q 341 3969 753 4284 
Q 1166 4600 1784 4600 
Q 2463 4600 2850 4234 
Q 3238 3869 3238 3325 
Q 3238 3016 3127 2736 
Q 3016 2456 2775 2150 
Q 2616 1947 2200 1565 
Q 1784 1184 1673 1059 
Q 1563 934 1494 816 
L 3238 816 
z
" id="Arial-BoldMT-32" transform="scale(0.015625)"/>
       </defs>
       <use xlink:href="#Arial-BoldMT-32"/>
       <use x="55.615234" xlink:href="#Arial-BoldMT-30"/>
      </g>
     </g>
    </g>
    <g id="xtick_3">
     <g id="line2d_5">
      <path clip-path="url(#peb4c4f7331)" d="M 242.181818 256.32 
L 242.181818 34.56 
" style="fill:none;stroke:#b0b0b0;stroke-dasharray:2.96,1.28;stroke-dashoffset:0;stroke-width:0.8;"/>
     </g>
     <g id="line2d_6">
      <g>
       <use style="stroke:#000000;stroke-width:0.8;" x="242.181818" xlink:href="#mdb174d2029" y="256.32"/>
      </g>
     </g>
     <g id="text_3">
      <!-- 30 -->
      <g transform="translate(235.508693 271.909375)scale(0.12 -0.12)">
       <defs>
        <path d="M 241 1216 
L 1091 1319 
Q 1131 994 1309 822 
Q 1488 650 1741 650 
Q 2013 650 2198 856 
Q 2384 1063 2384 1413 
Q 2384 1744 2206 1937 
Q 2028 2131 1772 2131 
Q 1603 2131 1369 2066 
L 1466 2781 
Q 1822 2772 2009 2936 
Q 2197 3100 2197 3372 
Q 2197 3603 2059 3740 
Q 1922 3878 1694 3878 
Q 1469 3878 1309 3722 
Q 1150 3566 1116 3266 
L 306 3403 
Q 391 3819 561 4067 
Q 731 4316 1036 4458 
Q 1341 4600 1719 4600 
Q 2366 4600 2756 4188 
Q 3078 3850 3078 3425 
Q 3078 2822 2419 2463 
Q 2813 2378 3048 2084 
Q 3284 1791 3284 1375 
Q 3284 772 2843 347 
Q 2403 -78 1747 -78 
Q 1125 -78 715 280 
Q 306 638 241 1216 
z
" id="Arial-BoldMT-33" transform="scale(0.015625)"/>
       </defs>
       <use xlink:href="#Arial-BoldMT-33"/>
       <use x="55.615234" xlink:href="#Arial-BoldMT-30"/>
      </g>
     </g>
    </g>
    <g id="xtick_4">
     <g id="line2d_7">
      <path clip-path="url(#peb4c4f7331)" d="M 305.590909 256.32 
L 305.590909 34.56 
" style="fill:none;stroke:#b0b0b0;stroke-dasharray:2.96,1.28;stroke-dashoffset:0;stroke-width:0.8;"/>
     </g>
     <g id="line2d_8">
      <g>
       <use style="stroke:#000000;stroke-width:0.8;" x="305.590909" xlink:href="#mdb174d2029" y="256.32"/>
      </g>
     </g>
     <g id="text_4">
      <!-- 40 -->
      <g transform="translate(298.917784 271.909375)scale(0.12 -0.12)">
       <defs>
        <path d="M 1994 0 
L 1994 922 
L 119 922 
L 119 1691 
L 2106 4600 
L 2844 4600 
L 2844 1694 
L 3413 1694 
L 3413 922 
L 2844 922 
L 2844 0 
L 1994 0 
z
M 1994 1694 
L 1994 3259 
L 941 1694 
L 1994 1694 
z
" id="Arial-BoldMT-34" transform="scale(0.015625)"/>
       </defs>
       <use xlink:href="#Arial-BoldMT-34"/>
       <use x="55.615234" xlink:href="#Arial-BoldMT-30"/>
      </g>
     </g>
    </g>
    <g id="xtick_5">
     <g id="line2d_9">
      <path clip-path="url(#peb4c4f7331)" d="M 369 256.32 
L 369 34.56 
" style="fill:none;stroke:#b0b0b0;stroke-dasharray:2.96,1.28;stroke-dashoffset:0;stroke-width:0.8;"/>
     </g>
     <g id="line2d_10">
      <g>
       <use style="stroke:#000000;stroke-width:0.8;" x="369" xlink:href="#mdb174d2029" y="256.32"/>
      </g>
     </g>
     <g id="text_5">
      <!-- 50 -->
      <g transform="translate(362.326875 271.909375)scale(0.12 -0.12)">
       <defs>
        <path d="M 284 1178 
L 1159 1269 
Q 1197 972 1381 798 
Q 1566 625 1806 625 
Q 2081 625 2272 848 
Q 2463 1072 2463 1522 
Q 2463 1944 2273 2155 
Q 2084 2366 1781 2366 
Q 1403 2366 1103 2031 
L 391 2134 
L 841 4519 
L 3163 4519 
L 3163 3697 
L 1506 3697 
L 1369 2919 
Q 1663 3066 1969 3066 
Q 2553 3066 2959 2641 
Q 3366 2216 3366 1538 
Q 3366 972 3038 528 
Q 2591 -78 1797 -78 
Q 1163 -78 763 262 
Q 363 603 284 1178 
z
" id="Arial-BoldMT-35" transform="scale(0.015625)"/>
       </defs>
       <use xlink:href="#Arial-BoldMT-35"/>
       <use x="55.615234" xlink:href="#Arial-BoldMT-30"/>
      </g>
     </g>
    </g>
    <g id="xtick_6">
     <g id="line2d_11">
      <path clip-path="url(#peb4c4f7331)" d="M 432.409091 256.32 
L 432.409091 34.56 
" style="fill:none;stroke:#b0b0b0;stroke-dasharray:2.96,1.28;stroke-dashoffset:0;stroke-width:0.8;"/>
     </g>
     <g id="line2d_12">
      <g>
       <use style="stroke:#000000;stroke-width:0.8;" x="432.409091" xlink:href="#mdb174d2029" y="256.32"/>
      </g>
     </g>
     <g id="text_6">
      <!-- 60 -->
      <g transform="translate(425.735966 271.909375)scale(0.12 -0.12)">
       <defs>
        <path d="M 3247 3459 
L 2397 3366 
Q 2366 3628 2234 3753 
Q 2103 3878 1894 3878 
Q 1616 3878 1423 3628 
Q 1231 3378 1181 2588 
Q 1509 2975 1997 2975 
Q 2547 2975 2939 2556 
Q 3331 2138 3331 1475 
Q 3331 772 2918 347 
Q 2506 -78 1859 -78 
Q 1166 -78 719 461 
Q 272 1000 272 2228 
Q 272 3488 737 4044 
Q 1203 4600 1947 4600 
Q 2469 4600 2811 4308 
Q 3153 4016 3247 3459 
z
M 1256 1544 
Q 1256 1116 1453 883 
Q 1650 650 1903 650 
Q 2147 650 2309 840 
Q 2472 1031 2472 1466 
Q 2472 1913 2297 2120 
Q 2122 2328 1859 2328 
Q 1606 2328 1431 2129 
Q 1256 1931 1256 1544 
z
" id="Arial-BoldMT-36" transform="scale(0.015625)"/>
       </defs>
       <use xlink:href="#Arial-BoldMT-36"/>
       <use x="55.615234" xlink:href="#Arial-BoldMT-30"/>
      </g>
     </g>
    </g>
    <g id="xtick_7">
     <g id="line2d_13">
      <path clip-path="url(#peb4c4f7331)" d="M 495.818182 256.32 
L 495.818182 34.56 
" style="fill:none;stroke:#b0b0b0;stroke-dasharray:2.96,1.28;stroke-dashoffset:0;stroke-width:0.8;"/>
     </g>
     <g id="line2d_14">
      <g>
       <use style="stroke:#000000;stroke-width:0.8;" x="495.818182" xlink:href="#mdb174d2029" y="256.32"/>
      </g>
     </g>
     <g id="text_7">
      <!-- 70 -->
      <g transform="translate(489.145057 271.909375)scale(0.12 -0.12)">
       <defs>
        <path d="M 272 3703 
L 272 4519 
L 3275 4519 
L 3275 3881 
Q 2903 3516 2518 2831 
Q 2134 2147 1932 1376 
Q 1731 606 1734 0 
L 888 0 
Q 909 950 1279 1937 
Q 1650 2925 2269 3703 
L 272 3703 
z
" id="Arial-BoldMT-37" transform="scale(0.015625)"/>
       </defs>
       <use xlink:href="#Arial-BoldMT-37"/>
       <use x="55.615234" xlink:href="#Arial-BoldMT-30"/>
      </g>
     </g>
    </g>
    <g id="xtick_8">
     <g id="line2d_15">
      <path clip-path="url(#peb4c4f7331)" d="M 559.227273 256.32 
L 559.227273 34.56 
" style="fill:none;stroke:#b0b0b0;stroke-dasharray:2.96,1.28;stroke-dashoffset:0;stroke-width:0.8;"/>
     </g>
     <g id="line2d_16">
      <g>
       <use style="stroke:#000000;stroke-width:0.8;" x="559.227273" xlink:href="#mdb174d2029" y="256.32"/>
      </g>
     </g>
     <g id="text_8">
      <!-- 80 -->
      <g transform="translate(552.554148 271.909375)scale(0.12 -0.12)">
       <defs>
        <path d="M 1025 2472 
Q 684 2616 529 2867 
Q 375 3119 375 3419 
Q 375 3931 733 4265 
Q 1091 4600 1750 4600 
Q 2403 4600 2764 4265 
Q 3125 3931 3125 3419 
Q 3125 3100 2959 2851 
Q 2794 2603 2494 2472 
Q 2875 2319 3073 2025 
Q 3272 1731 3272 1347 
Q 3272 713 2867 316 
Q 2463 -81 1791 -81 
Q 1166 -81 750 247 
Q 259 634 259 1309 
Q 259 1681 443 1992 
Q 628 2303 1025 2472 
z
M 1206 3356 
Q 1206 3094 1354 2947 
Q 1503 2800 1750 2800 
Q 2000 2800 2150 2948 
Q 2300 3097 2300 3359 
Q 2300 3606 2151 3754 
Q 2003 3903 1759 3903 
Q 1506 3903 1356 3753 
Q 1206 3603 1206 3356 
z
M 1125 1394 
Q 1125 1031 1311 828 
Q 1497 625 1775 625 
Q 2047 625 2225 820 
Q 2403 1016 2403 1384 
Q 2403 1706 2222 1901 
Q 2041 2097 1763 2097 
Q 1441 2097 1283 1875 
Q 1125 1653 1125 1394 
z
" id="Arial-BoldMT-38" transform="scale(0.015625)"/>
       </defs>
       <use xlink:href="#Arial-BoldMT-38"/>
       <use x="55.615234" xlink:href="#Arial-BoldMT-30"/>
      </g>
     </g>
    </g>
    <g id="xtick_9">
     <g id="line2d_17">
      <path clip-path="url(#peb4c4f7331)" d="M 622.636364 256.32 
L 622.636364 34.56 
" style="fill:none;stroke:#b0b0b0;stroke-dasharray:2.96,1.28;stroke-dashoffset:0;stroke-width:0.8;"/>
     </g>
     <g id="line2d_18">
      <g>
       <use style="stroke:#000000;stroke-width:0.8;" x="622.636364" xlink:href="#mdb174d2029" y="256.32"/>
      </g>
     </g>
     <g id="text_9">
      <!-- 90 -->
      <g transform="translate(615.963239 271.909375)scale(0.12 -0.12)">
       <defs>
        <path d="M 291 1059 
L 1141 1153 
Q 1172 894 1303 769 
Q 1434 644 1650 644 
Q 1922 644 2112 894 
Q 2303 1144 2356 1931 
Q 2025 1547 1528 1547 
Q 988 1547 595 1964 
Q 203 2381 203 3050 
Q 203 3747 617 4173 
Q 1031 4600 1672 4600 
Q 2369 4600 2816 4061 
Q 3263 3522 3263 2288 
Q 3263 1031 2797 475 
Q 2331 -81 1584 -81 
Q 1047 -81 715 205 
Q 384 491 291 1059 
z
M 2278 2978 
Q 2278 3403 2083 3637 
Q 1888 3872 1631 3872 
Q 1388 3872 1227 3680 
Q 1066 3488 1066 3050 
Q 1066 2606 1241 2398 
Q 1416 2191 1678 2191 
Q 1931 2191 2104 2391 
Q 2278 2591 2278 2978 
z
" id="Arial-BoldMT-39" transform="scale(0.015625)"/>
       </defs>
       <use xlink:href="#Arial-BoldMT-39"/>
       <use x="55.615234" xlink:href="#Arial-BoldMT-30"/>
      </g>
     </g>
    </g>
    <g id="text_10">
     <!-- The model is trained with different numbers of classes -->
     <g transform="translate(200.697734 287.582656)scale(0.13 -0.13)">
      <defs>
       <path d="M 1497 0 
L 1497 3806 
L 138 3806 
L 138 4581 
L 3778 4581 
L 3778 3806 
L 2422 3806 
L 2422 0 
L 1497 0 
z
" id="Arial-BoldMT-54" transform="scale(0.015625)"/>
       <path d="M 1334 4581 
L 1334 2897 
Q 1759 3394 2350 3394 
Q 2653 3394 2897 3281 
Q 3141 3169 3264 2994 
Q 3388 2819 3433 2606 
Q 3478 2394 3478 1947 
L 3478 0 
L 2600 0 
L 2600 1753 
Q 2600 2275 2550 2415 
Q 2500 2556 2373 2639 
Q 2247 2722 2056 2722 
Q 1838 2722 1666 2615 
Q 1494 2509 1414 2295 
Q 1334 2081 1334 1663 
L 1334 0 
L 456 0 
L 456 4581 
L 1334 4581 
z
" id="Arial-BoldMT-68" transform="scale(0.015625)"/>
       <path d="M 2381 1056 
L 3256 909 
Q 3088 428 2723 176 
Q 2359 -75 1813 -75 
Q 947 -75 531 491 
Q 203 944 203 1634 
Q 203 2459 634 2926 
Q 1066 3394 1725 3394 
Q 2466 3394 2894 2905 
Q 3322 2416 3303 1406 
L 1103 1406 
Q 1113 1016 1316 798 
Q 1519 581 1822 581 
Q 2028 581 2168 693 
Q 2309 806 2381 1056 
z
M 2431 1944 
Q 2422 2325 2234 2523 
Q 2047 2722 1778 2722 
Q 1491 2722 1303 2513 
Q 1116 2303 1119 1944 
L 2431 1944 
z
" id="Arial-BoldMT-65" transform="scale(0.015625)"/>
       <path id="Arial-BoldMT-20" transform="scale(0.015625)"/>
       <path d="M 394 3319 
L 1203 3319 
L 1203 2866 
Q 1638 3394 2238 3394 
Q 2556 3394 2790 3262 
Q 3025 3131 3175 2866 
Q 3394 3131 3647 3262 
Q 3900 3394 4188 3394 
Q 4553 3394 4806 3245 
Q 5059 3097 5184 2809 
Q 5275 2597 5275 2122 
L 5275 0 
L 4397 0 
L 4397 1897 
Q 4397 2391 4306 2534 
Q 4184 2722 3931 2722 
Q 3747 2722 3584 2609 
Q 3422 2497 3350 2280 
Q 3278 2063 3278 1594 
L 3278 0 
L 2400 0 
L 2400 1819 
Q 2400 2303 2353 2443 
Q 2306 2584 2207 2653 
Q 2109 2722 1941 2722 
Q 1738 2722 1575 2612 
Q 1413 2503 1342 2297 
Q 1272 2091 1272 1613 
L 1272 0 
L 394 0 
L 394 3319 
z
" id="Arial-BoldMT-6d" transform="scale(0.015625)"/>
       <path d="M 256 1706 
Q 256 2144 472 2553 
Q 688 2963 1083 3178 
Q 1478 3394 1966 3394 
Q 2719 3394 3200 2905 
Q 3681 2416 3681 1669 
Q 3681 916 3195 420 
Q 2709 -75 1972 -75 
Q 1516 -75 1102 131 
Q 688 338 472 736 
Q 256 1134 256 1706 
z
M 1156 1659 
Q 1156 1166 1390 903 
Q 1625 641 1969 641 
Q 2313 641 2545 903 
Q 2778 1166 2778 1666 
Q 2778 2153 2545 2415 
Q 2313 2678 1969 2678 
Q 1625 2678 1390 2415 
Q 1156 2153 1156 1659 
z
" id="Arial-BoldMT-6f" transform="scale(0.015625)"/>
       <path d="M 3503 0 
L 2688 0 
L 2688 488 
Q 2484 203 2207 64 
Q 1931 -75 1650 -75 
Q 1078 -75 670 386 
Q 263 847 263 1672 
Q 263 2516 659 2955 
Q 1056 3394 1663 3394 
Q 2219 3394 2625 2931 
L 2625 4581 
L 3503 4581 
L 3503 0 
z
M 1159 1731 
Q 1159 1200 1306 963 
Q 1519 619 1900 619 
Q 2203 619 2415 876 
Q 2628 1134 2628 1647 
Q 2628 2219 2422 2470 
Q 2216 2722 1894 2722 
Q 1581 2722 1370 2473 
Q 1159 2225 1159 1731 
z
" id="Arial-BoldMT-64" transform="scale(0.015625)"/>
       <path d="M 459 0 
L 459 4581 
L 1338 4581 
L 1338 0 
L 459 0 
z
" id="Arial-BoldMT-6c" transform="scale(0.015625)"/>
       <path d="M 459 3769 
L 459 4581 
L 1338 4581 
L 1338 3769 
L 459 3769 
z
M 459 0 
L 459 3319 
L 1338 3319 
L 1338 0 
L 459 0 
z
" id="Arial-BoldMT-69" transform="scale(0.015625)"/>
       <path d="M 150 947 
L 1031 1081 
Q 1088 825 1259 692 
Q 1431 559 1741 559 
Q 2081 559 2253 684 
Q 2369 772 2369 919 
Q 2369 1019 2306 1084 
Q 2241 1147 2013 1200 
Q 950 1434 666 1628 
Q 272 1897 272 2375 
Q 272 2806 612 3100 
Q 953 3394 1669 3394 
Q 2350 3394 2681 3172 
Q 3013 2950 3138 2516 
L 2309 2363 
Q 2256 2556 2107 2659 
Q 1959 2763 1684 2763 
Q 1338 2763 1188 2666 
Q 1088 2597 1088 2488 
Q 1088 2394 1175 2328 
Q 1294 2241 1995 2081 
Q 2697 1922 2975 1691 
Q 3250 1456 3250 1038 
Q 3250 581 2869 253 
Q 2488 -75 1741 -75 
Q 1063 -75 667 200 
Q 272 475 150 947 
z
" id="Arial-BoldMT-73" transform="scale(0.015625)"/>
       <path d="M 1981 3319 
L 1981 2619 
L 1381 2619 
L 1381 1281 
Q 1381 875 1398 808 
Q 1416 741 1477 697 
Q 1538 653 1625 653 
Q 1747 653 1978 738 
L 2053 56 
Q 1747 -75 1359 -75 
Q 1122 -75 931 4 
Q 741 84 652 211 
Q 563 338 528 553 
Q 500 706 500 1172 
L 500 2619 
L 97 2619 
L 97 3319 
L 500 3319 
L 500 3978 
L 1381 4491 
L 1381 3319 
L 1981 3319 
z
" id="Arial-BoldMT-74" transform="scale(0.015625)"/>
       <path d="M 1300 0 
L 422 0 
L 422 3319 
L 1238 3319 
L 1238 2847 
Q 1447 3181 1614 3287 
Q 1781 3394 1994 3394 
Q 2294 3394 2572 3228 
L 2300 2463 
Q 2078 2606 1888 2606 
Q 1703 2606 1575 2504 
Q 1447 2403 1373 2137 
Q 1300 1872 1300 1025 
L 1300 0 
z
" id="Arial-BoldMT-72" transform="scale(0.015625)"/>
       <path d="M 1116 2306 
L 319 2450 
Q 453 2931 781 3162 
Q 1109 3394 1756 3394 
Q 2344 3394 2631 3255 
Q 2919 3116 3036 2902 
Q 3153 2688 3153 2116 
L 3144 1091 
Q 3144 653 3186 445 
Q 3228 238 3344 0 
L 2475 0 
Q 2441 88 2391 259 
Q 2369 338 2359 363 
Q 2134 144 1878 34 
Q 1622 -75 1331 -75 
Q 819 -75 523 203 
Q 228 481 228 906 
Q 228 1188 362 1408 
Q 497 1628 739 1745 
Q 981 1863 1438 1950 
Q 2053 2066 2291 2166 
L 2291 2253 
Q 2291 2506 2166 2614 
Q 2041 2722 1694 2722 
Q 1459 2722 1328 2630 
Q 1197 2538 1116 2306 
z
M 2291 1594 
Q 2122 1538 1756 1459 
Q 1391 1381 1278 1306 
Q 1106 1184 1106 997 
Q 1106 813 1243 678 
Q 1381 544 1594 544 
Q 1831 544 2047 700 
Q 2206 819 2256 991 
Q 2291 1103 2291 1419 
L 2291 1594 
z
" id="Arial-BoldMT-61" transform="scale(0.015625)"/>
       <path d="M 3478 0 
L 2600 0 
L 2600 1694 
Q 2600 2231 2544 2389 
Q 2488 2547 2361 2634 
Q 2234 2722 2056 2722 
Q 1828 2722 1647 2597 
Q 1466 2472 1398 2265 
Q 1331 2059 1331 1503 
L 1331 0 
L 453 0 
L 453 3319 
L 1269 3319 
L 1269 2831 
Q 1703 3394 2363 3394 
Q 2653 3394 2893 3289 
Q 3134 3184 3257 3021 
Q 3381 2859 3429 2653 
Q 3478 2447 3478 2063 
L 3478 0 
z
" id="Arial-BoldMT-6e" transform="scale(0.015625)"/>
       <path d="M 1078 0 
L 28 3319 
L 881 3319 
L 1503 1144 
L 2075 3319 
L 2922 3319 
L 3475 1144 
L 4109 3319 
L 4975 3319 
L 3909 0 
L 3066 0 
L 2494 2134 
L 1931 0 
L 1078 0 
z
" id="Arial-BoldMT-77" transform="scale(0.015625)"/>
       <path d="M 75 3319 
L 563 3319 
L 563 3569 
Q 563 3988 652 4194 
Q 741 4400 980 4529 
Q 1219 4659 1584 4659 
Q 1959 4659 2319 4547 
L 2200 3934 
Q 1991 3984 1797 3984 
Q 1606 3984 1523 3895 
Q 1441 3806 1441 3553 
L 1441 3319 
L 2097 3319 
L 2097 2628 
L 1441 2628 
L 1441 0 
L 563 0 
L 563 2628 
L 75 2628 
L 75 3319 
z
" id="Arial-BoldMT-66" transform="scale(0.015625)"/>
       <path d="M 2644 0 
L 2644 497 
Q 2463 231 2167 78 
Q 1872 -75 1544 -75 
Q 1209 -75 943 72 
Q 678 219 559 484 
Q 441 750 441 1219 
L 441 3319 
L 1319 3319 
L 1319 1794 
Q 1319 1094 1367 936 
Q 1416 778 1544 686 
Q 1672 594 1869 594 
Q 2094 594 2272 717 
Q 2450 841 2515 1023 
Q 2581 1206 2581 1919 
L 2581 3319 
L 3459 3319 
L 3459 0 
L 2644 0 
z
" id="Arial-BoldMT-75" transform="scale(0.015625)"/>
       <path d="M 422 0 
L 422 4581 
L 1300 4581 
L 1300 2931 
Q 1706 3394 2263 3394 
Q 2869 3394 3266 2955 
Q 3663 2516 3663 1694 
Q 3663 844 3258 384 
Q 2853 -75 2275 -75 
Q 1991 -75 1714 67 
Q 1438 209 1238 488 
L 1238 0 
L 422 0 
z
M 1294 1731 
Q 1294 1216 1456 969 
Q 1684 619 2063 619 
Q 2353 619 2558 867 
Q 2763 1116 2763 1650 
Q 2763 2219 2556 2470 
Q 2350 2722 2028 2722 
Q 1713 2722 1503 2476 
Q 1294 2231 1294 1731 
z
" id="Arial-BoldMT-62" transform="scale(0.015625)"/>
       <path d="M 3353 2338 
L 2488 2181 
Q 2444 2441 2289 2572 
Q 2134 2703 1888 2703 
Q 1559 2703 1364 2476 
Q 1169 2250 1169 1719 
Q 1169 1128 1367 884 
Q 1566 641 1900 641 
Q 2150 641 2309 783 
Q 2469 925 2534 1272 
L 3397 1125 
Q 3263 531 2881 228 
Q 2500 -75 1859 -75 
Q 1131 -75 698 384 
Q 266 844 266 1656 
Q 266 2478 700 2936 
Q 1134 3394 1875 3394 
Q 2481 3394 2839 3133 
Q 3197 2872 3353 2338 
z
" id="Arial-BoldMT-63" transform="scale(0.015625)"/>
      </defs>
      <use xlink:href="#Arial-BoldMT-54"/>
      <use x="61.083984" xlink:href="#Arial-BoldMT-68"/>
      <use x="122.167969" xlink:href="#Arial-BoldMT-65"/>
      <use x="177.783203" xlink:href="#Arial-BoldMT-20"/>
      <use x="205.566406" xlink:href="#Arial-BoldMT-6d"/>
      <use x="294.482422" xlink:href="#Arial-BoldMT-6f"/>
      <use x="355.566406" xlink:href="#Arial-BoldMT-64"/>
      <use x="416.650391" xlink:href="#Arial-BoldMT-65"/>
      <use x="472.265625" xlink:href="#Arial-BoldMT-6c"/>
      <use x="500.048828" xlink:href="#Arial-BoldMT-20"/>
      <use x="527.832031" xlink:href="#Arial-BoldMT-69"/>
      <use x="555.615234" xlink:href="#Arial-BoldMT-73"/>
      <use x="611.230469" xlink:href="#Arial-BoldMT-20"/>
      <use x="639.013672" xlink:href="#Arial-BoldMT-74"/>
      <use x="672.314453" xlink:href="#Arial-BoldMT-72"/>
      <use x="711.230469" xlink:href="#Arial-BoldMT-61"/>
      <use x="766.845703" xlink:href="#Arial-BoldMT-69"/>
      <use x="794.628906" xlink:href="#Arial-BoldMT-6e"/>
      <use x="855.712891" xlink:href="#Arial-BoldMT-65"/>
      <use x="911.328125" xlink:href="#Arial-BoldMT-64"/>
      <use x="972.412109" xlink:href="#Arial-BoldMT-20"/>
      <use x="1000.195312" xlink:href="#Arial-BoldMT-77"/>
      <use x="1077.978516" xlink:href="#Arial-BoldMT-69"/>
      <use x="1105.761719" xlink:href="#Arial-BoldMT-74"/>
      <use x="1139.0625" xlink:href="#Arial-BoldMT-68"/>
      <use x="1200.146484" xlink:href="#Arial-BoldMT-20"/>
      <use x="1227.929688" xlink:href="#Arial-BoldMT-64"/>
      <use x="1289.013672" xlink:href="#Arial-BoldMT-69"/>
      <use x="1316.796875" xlink:href="#Arial-BoldMT-66"/>
      <use x="1350.097656" xlink:href="#Arial-BoldMT-66"/>
      <use x="1383.398438" xlink:href="#Arial-BoldMT-65"/>
      <use x="1439.013672" xlink:href="#Arial-BoldMT-72"/>
      <use x="1477.929688" xlink:href="#Arial-BoldMT-65"/>
      <use x="1533.544922" xlink:href="#Arial-BoldMT-6e"/>
      <use x="1594.628906" xlink:href="#Arial-BoldMT-74"/>
      <use x="1627.929688" xlink:href="#Arial-BoldMT-20"/>
      <use x="1655.712891" xlink:href="#Arial-BoldMT-6e"/>
      <use x="1716.796875" xlink:href="#Arial-BoldMT-75"/>
      <use x="1777.880859" xlink:href="#Arial-BoldMT-6d"/>
      <use x="1866.796875" xlink:href="#Arial-BoldMT-62"/>
      <use x="1927.880859" xlink:href="#Arial-BoldMT-65"/>
      <use x="1983.496094" xlink:href="#Arial-BoldMT-72"/>
      <use x="2022.412109" xlink:href="#Arial-BoldMT-73"/>
      <use x="2078.027344" xlink:href="#Arial-BoldMT-20"/>
      <use x="2105.810547" xlink:href="#Arial-BoldMT-6f"/>
      <use x="2166.894531" xlink:href="#Arial-BoldMT-66"/>
      <use x="2200.195312" xlink:href="#Arial-BoldMT-20"/>
      <use x="2227.978516" xlink:href="#Arial-BoldMT-63"/>
      <use x="2283.59375" xlink:href="#Arial-BoldMT-6c"/>
      <use x="2311.376953" xlink:href="#Arial-BoldMT-61"/>
      <use x="2366.992188" xlink:href="#Arial-BoldMT-73"/>
      <use x="2422.607422" xlink:href="#Arial-BoldMT-73"/>
      <use x="2478.222656" xlink:href="#Arial-BoldMT-65"/>
      <use x="2533.837891" xlink:href="#Arial-BoldMT-73"/>
     </g>
    </g>
   </g>
   <g id="matplotlib.axis_2">
    <g id="ytick_1">
     <g id="line2d_19">
      <path clip-path="url(#peb4c4f7331)" d="M 90 229.588341 
L 648 229.588341 
" style="fill:none;stroke:#b0b0b0;stroke-dasharray:2.96,1.28;stroke-dashoffset:0;stroke-width:0.8;"/>
     </g>
     <g id="line2d_20">
      <defs>
       <path d="M 0 0 
L -3.5 0 
" id="m346ede6737" style="stroke:#000000;stroke-width:0.8;"/>
      </defs>
      <g>
       <use style="stroke:#000000;stroke-width:0.8;" x="90" xlink:href="#m346ede6737" y="229.588341"/>
      </g>
     </g>
     <g id="text_11">
      <!-- 0.750 -->
      <g transform="translate(52.97375 233.883029)scale(0.12 -0.12)">
       <defs>
        <path d="M 459 0 
L 459 878 
L 1338 878 
L 1338 0 
L 459 0 
z
" id="Arial-BoldMT-2e" transform="scale(0.015625)"/>
       </defs>
       <use xlink:href="#Arial-BoldMT-30"/>
       <use x="55.615234" xlink:href="#Arial-BoldMT-2e"/>
       <use x="83.398438" xlink:href="#Arial-BoldMT-37"/>
       <use x="139.013672" xlink:href="#Arial-BoldMT-35"/>
       <use x="194.628906" xlink:href="#Arial-BoldMT-30"/>
      </g>
     </g>
    </g>
    <g id="ytick_2">
     <g id="line2d_21">
      <path clip-path="url(#peb4c4f7331)" d="M 90 200.889201 
L 648 200.889201 
" style="fill:none;stroke:#b0b0b0;stroke-dasharray:2.96,1.28;stroke-dashoffset:0;stroke-width:0.8;"/>
     </g>
     <g id="line2d_22">
      <g>
       <use style="stroke:#000000;stroke-width:0.8;" x="90" xlink:href="#m346ede6737" y="200.889201"/>
      </g>
     </g>
     <g id="text_12">
      <!-- 0.775 -->
      <g transform="translate(52.97375 205.183889)scale(0.12 -0.12)">
       <use xlink:href="#Arial-BoldMT-30"/>
       <use x="55.615234" xlink:href="#Arial-BoldMT-2e"/>
       <use x="83.398438" xlink:href="#Arial-BoldMT-37"/>
       <use x="139.013672" xlink:href="#Arial-BoldMT-37"/>
       <use x="194.628906" xlink:href="#Arial-BoldMT-35"/>
      </g>
     </g>
    </g>
    <g id="ytick_3">
     <g id="line2d_23">
      <path clip-path="url(#peb4c4f7331)" d="M 90 172.190062 
L 648 172.190062 
" style="fill:none;stroke:#b0b0b0;stroke-dasharray:2.96,1.28;stroke-dashoffset:0;stroke-width:0.8;"/>
     </g>
     <g id="line2d_24">
      <g>
       <use style="stroke:#000000;stroke-width:0.8;" x="90" xlink:href="#m346ede6737" y="172.190062"/>
      </g>
     </g>
     <g id="text_13">
      <!-- 0.800 -->
      <g transform="translate(52.97375 176.484749)scale(0.12 -0.12)">
       <use xlink:href="#Arial-BoldMT-30"/>
       <use x="55.615234" xlink:href="#Arial-BoldMT-2e"/>
       <use x="83.398438" xlink:href="#Arial-BoldMT-38"/>
       <use x="139.013672" xlink:href="#Arial-BoldMT-30"/>
       <use x="194.628906" xlink:href="#Arial-BoldMT-30"/>
      </g>
     </g>
    </g>
    <g id="ytick_4">
     <g id="line2d_25">
      <path clip-path="url(#peb4c4f7331)" d="M 90 143.490922 
L 648 143.490922 
" style="fill:none;stroke:#b0b0b0;stroke-dasharray:2.96,1.28;stroke-dashoffset:0;stroke-width:0.8;"/>
     </g>
     <g id="line2d_26">
      <g>
       <use style="stroke:#000000;stroke-width:0.8;" x="90" xlink:href="#m346ede6737" y="143.490922"/>
      </g>
     </g>
     <g id="text_14">
      <!-- 0.825 -->
      <g transform="translate(52.97375 147.785609)scale(0.12 -0.12)">
       <use xlink:href="#Arial-BoldMT-30"/>
       <use x="55.615234" xlink:href="#Arial-BoldMT-2e"/>
       <use x="83.398438" xlink:href="#Arial-BoldMT-38"/>
       <use x="139.013672" xlink:href="#Arial-BoldMT-32"/>
       <use x="194.628906" xlink:href="#Arial-BoldMT-35"/>
      </g>
     </g>
    </g>
    <g id="ytick_5">
     <g id="line2d_27">
      <path clip-path="url(#peb4c4f7331)" d="M 90 114.791782 
L 648 114.791782 
" style="fill:none;stroke:#b0b0b0;stroke-dasharray:2.96,1.28;stroke-dashoffset:0;stroke-width:0.8;"/>
     </g>
     <g id="line2d_28">
      <g>
       <use style="stroke:#000000;stroke-width:0.8;" x="90" xlink:href="#m346ede6737" y="114.791782"/>
      </g>
     </g>
     <g id="text_15">
      <!-- 0.850 -->
      <g transform="translate(52.97375 119.08647)scale(0.12 -0.12)">
       <use xlink:href="#Arial-BoldMT-30"/>
       <use x="55.615234" xlink:href="#Arial-BoldMT-2e"/>
       <use x="83.398438" xlink:href="#Arial-BoldMT-38"/>
       <use x="139.013672" xlink:href="#Arial-BoldMT-35"/>
       <use x="194.628906" xlink:href="#Arial-BoldMT-30"/>
      </g>
     </g>
    </g>
    <g id="ytick_6">
     <g id="line2d_29">
      <path clip-path="url(#peb4c4f7331)" d="M 90 86.092642 
L 648 86.092642 
" style="fill:none;stroke:#b0b0b0;stroke-dasharray:2.96,1.28;stroke-dashoffset:0;stroke-width:0.8;"/>
     </g>
     <g id="line2d_30">
      <g>
       <use style="stroke:#000000;stroke-width:0.8;" x="90" xlink:href="#m346ede6737" y="86.092642"/>
      </g>
     </g>
     <g id="text_16">
      <!-- 0.875 -->
      <g transform="translate(52.97375 90.38733)scale(0.12 -0.12)">
       <use xlink:href="#Arial-BoldMT-30"/>
       <use x="55.615234" xlink:href="#Arial-BoldMT-2e"/>
       <use x="83.398438" xlink:href="#Arial-BoldMT-38"/>
       <use x="139.013672" xlink:href="#Arial-BoldMT-37"/>
       <use x="194.628906" xlink:href="#Arial-BoldMT-35"/>
      </g>
     </g>
    </g>
    <g id="ytick_7">
     <g id="line2d_31">
      <path clip-path="url(#peb4c4f7331)" d="M 90 57.393503 
L 648 57.393503 
" style="fill:none;stroke:#b0b0b0;stroke-dasharray:2.96,1.28;stroke-dashoffset:0;stroke-width:0.8;"/>
     </g>
     <g id="line2d_32">
      <g>
       <use style="stroke:#000000;stroke-width:0.8;" x="90" xlink:href="#m346ede6737" y="57.393503"/>
      </g>
     </g>
     <g id="text_17">
      <!-- 0.900 -->
      <g transform="translate(52.97375 61.68819)scale(0.12 -0.12)">
       <use xlink:href="#Arial-BoldMT-30"/>
       <use x="55.615234" xlink:href="#Arial-BoldMT-2e"/>
       <use x="83.398438" xlink:href="#Arial-BoldMT-39"/>
       <use x="139.013672" xlink:href="#Arial-BoldMT-30"/>
       <use x="194.628906" xlink:href="#Arial-BoldMT-30"/>
      </g>
     </g>
    </g>
   </g>
   <g id="line2d_33">
    <path clip-path="url(#peb4c4f7331)" d="M 115.363636 233.570645 
L 178.772727 124.19002 
L 242.181818 123.128073 
L 305.590909 110.384699 
L 369 107.198855 
L 432.409091 97.641325 
L 495.818182 82.774056 
L 559.227273 76.402369 
L 622.636364 76.402369 
" style="fill:none;stroke:#ffa500;stroke-linecap:square;stroke-width:1.5;"/>
    <defs>
     <path d="M -3 0 
L 3 0 
M 0 3 
L 0 -3 
" id="m3b51cde22d" style="stroke:#ffa500;"/>
    </defs>
    <g clip-path="url(#peb4c4f7331)">
     <use style="fill:#ffa500;stroke:#ffa500;" x="115.363636" xlink:href="#m3b51cde22d" y="233.570645"/>
     <use style="fill:#ffa500;stroke:#ffa500;" x="178.772727" xlink:href="#m3b51cde22d" y="124.19002"/>
     <use style="fill:#ffa500;stroke:#ffa500;" x="242.181818" xlink:href="#m3b51cde22d" y="123.128073"/>
     <use style="fill:#ffa500;stroke:#ffa500;" x="305.590909" xlink:href="#m3b51cde22d" y="110.384699"/>
     <use style="fill:#ffa500;stroke:#ffa500;" x="369" xlink:href="#m3b51cde22d" y="107.198855"/>
     <use style="fill:#ffa500;stroke:#ffa500;" x="432.409091" xlink:href="#m3b51cde22d" y="97.641325"/>
     <use style="fill:#ffa500;stroke:#ffa500;" x="495.818182" xlink:href="#m3b51cde22d" y="82.774056"/>
     <use style="fill:#ffa500;stroke:#ffa500;" x="559.227273" xlink:href="#m3b51cde22d" y="76.402369"/>
     <use style="fill:#ffa500;stroke:#ffa500;" x="622.636364" xlink:href="#m3b51cde22d" y="76.402369"/>
    </g>
   </g>
   <g id="line2d_34">
    <path clip-path="url(#peb4c4f7331)" d="M 115.363636 246.24 
L 178.772727 142.675712 
L 242.181818 137.576118 
L 305.590909 129.893773 
L 369 118.189436 
L 432.409091 104.186384 
L 495.818182 78.789502 
L 559.227273 76.612124 
L 622.636364 75.391138 
" style="fill:none;stroke:#008000;stroke-linecap:square;stroke-width:1.5;"/>
    <defs>
     <path d="M -3 -0 
L 3 3 
L 3 -3 
z
" id="m530a252a3e" style="stroke:#008000;stroke-linejoin:miter;"/>
    </defs>
    <g clip-path="url(#peb4c4f7331)">
     <use style="fill:#008000;stroke:#008000;stroke-linejoin:miter;" x="115.363636" xlink:href="#m530a252a3e" y="246.24"/>
     <use style="fill:#008000;stroke:#008000;stroke-linejoin:miter;" x="178.772727" xlink:href="#m530a252a3e" y="142.675712"/>
     <use style="fill:#008000;stroke:#008000;stroke-linejoin:miter;" x="242.181818" xlink:href="#m530a252a3e" y="137.576118"/>
     <use style="fill:#008000;stroke:#008000;stroke-linejoin:miter;" x="305.590909" xlink:href="#m530a252a3e" y="129.893773"/>
     <use style="fill:#008000;stroke:#008000;stroke-linejoin:miter;" x="369" xlink:href="#m530a252a3e" y="118.189436"/>
     <use style="fill:#008000;stroke:#008000;stroke-linejoin:miter;" x="432.409091" xlink:href="#m530a252a3e" y="104.186384"/>
     <use style="fill:#008000;stroke:#008000;stroke-linejoin:miter;" x="495.818182" xlink:href="#m530a252a3e" y="78.789502"/>
     <use style="fill:#008000;stroke:#008000;stroke-linejoin:miter;" x="559.227273" xlink:href="#m530a252a3e" y="76.612124"/>
     <use style="fill:#008000;stroke:#008000;stroke-linejoin:miter;" x="622.636364" xlink:href="#m530a252a3e" y="75.391138"/>
    </g>
   </g>
   <g id="line2d_35">
    <path clip-path="url(#peb4c4f7331)" d="M 115.363636 200.419392 
L 178.772727 101.635979 
L 242.181818 97.843049 
L 305.590909 78.535383 
L 369 90.41625 
L 432.409091 74.742859 
L 495.818182 53.150346 
L 559.227273 49.523018 
L 622.636364 44.64 
" style="fill:none;stroke:#ff0000;stroke-linecap:square;stroke-width:1.5;"/>
    <defs>
     <path d="M 0 3 
C 0.795609 3 1.55874 2.683901 2.12132 2.12132 
C 2.683901 1.55874 3 0.795609 3 0 
C 3 -0.795609 2.683901 -1.55874 2.12132 -2.12132 
C 1.55874 -2.683901 0.795609 -3 0 -3 
C -0.795609 -3 -1.55874 -2.683901 -2.12132 -2.12132 
C -2.683901 -1.55874 -3 -0.795609 -3 0 
C -3 0.795609 -2.683901 1.55874 -2.12132 2.12132 
C -1.55874 2.683901 -0.795609 3 0 3 
z
" id="m49029521b7" style="stroke:#ff0000;"/>
    </defs>
    <g clip-path="url(#peb4c4f7331)">
     <use style="fill:#ff0000;stroke:#ff0000;" x="115.363636" xlink:href="#m49029521b7" y="200.419392"/>
     <use style="fill:#ff0000;stroke:#ff0000;" x="178.772727" xlink:href="#m49029521b7" y="101.635979"/>
     <use style="fill:#ff0000;stroke:#ff0000;" x="242.181818" xlink:href="#m49029521b7" y="97.843049"/>
     <use style="fill:#ff0000;stroke:#ff0000;" x="305.590909" xlink:href="#m49029521b7" y="78.535383"/>
     <use style="fill:#ff0000;stroke:#ff0000;" x="369" xlink:href="#m49029521b7" y="90.41625"/>
     <use style="fill:#ff0000;stroke:#ff0000;" x="432.409091" xlink:href="#m49029521b7" y="74.742859"/>
     <use style="fill:#ff0000;stroke:#ff0000;" x="495.818182" xlink:href="#m49029521b7" y="53.150346"/>
     <use style="fill:#ff0000;stroke:#ff0000;" x="559.227273" xlink:href="#m49029521b7" y="49.523018"/>
     <use style="fill:#ff0000;stroke:#ff0000;" x="622.636364" xlink:href="#m49029521b7" y="44.64"/>
    </g>
   </g>
   <g id="line2d_36">
    <path clip-path="url(#peb4c4f7331)" d="M 115.363636 223.934934 
L 178.772727 122.590647 
L 242.181818 118.115276 
L 305.590909 104.883126 
L 369 104.498367 
L 432.409091 89.681114 
L 495.818182 66.130321 
L 559.227273 63.246117 
L 622.636364 60.24497 
" style="fill:none;stroke:#0000ff;stroke-linecap:square;stroke-width:1.5;"/>
    <defs>
     <path d="M 0 -3 
L -0.673542 -0.927051 
L -2.85317 -0.927051 
L -1.089814 0.354102 
L -1.763356 2.427051 
L -0 1.145898 
L 1.763356 2.427051 
L 1.089814 0.354102 
L 2.85317 -0.927051 
L 0.673542 -0.927051 
z
" id="mc186285532" style="stroke:#0000ff;stroke-linejoin:bevel;"/>
    </defs>
    <g clip-path="url(#peb4c4f7331)">
     <use style="fill:#0000ff;stroke:#0000ff;stroke-linejoin:bevel;" x="115.363636" xlink:href="#mc186285532" y="223.934934"/>
     <use style="fill:#0000ff;stroke:#0000ff;stroke-linejoin:bevel;" x="178.772727" xlink:href="#mc186285532" y="122.590647"/>
     <use style="fill:#0000ff;stroke:#0000ff;stroke-linejoin:bevel;" x="242.181818" xlink:href="#mc186285532" y="118.115276"/>
     <use style="fill:#0000ff;stroke:#0000ff;stroke-linejoin:bevel;" x="305.590909" xlink:href="#mc186285532" y="104.883126"/>
     <use style="fill:#0000ff;stroke:#0000ff;stroke-linejoin:bevel;" x="369" xlink:href="#mc186285532" y="104.498367"/>
     <use style="fill:#0000ff;stroke:#0000ff;stroke-linejoin:bevel;" x="432.409091" xlink:href="#mc186285532" y="89.681114"/>
     <use style="fill:#0000ff;stroke:#0000ff;stroke-linejoin:bevel;" x="495.818182" xlink:href="#mc186285532" y="66.130321"/>
     <use style="fill:#0000ff;stroke:#0000ff;stroke-linejoin:bevel;" x="559.227273" xlink:href="#mc186285532" y="63.246117"/>
     <use style="fill:#0000ff;stroke:#0000ff;stroke-linejoin:bevel;" x="622.636364" xlink:href="#mc186285532" y="60.24497"/>
    </g>
   </g>
   <g id="line2d_37">
    <path clip-path="url(#peb4c4f7331)" d="M 115.363636 237.716243 
L 178.772727 126.93291 
L 242.181818 125.801449 
L 305.590909 112.86493 
L 369 109.690616 
L 432.409091 99.983891 
L 495.818182 84.872711 
L 559.227273 78.400441 
L 622.636364 78.40917 
" style="fill:none;stroke:#800080;stroke-linecap:square;stroke-width:1.5;"/>
    <defs>
     <path d="M -0 3 
L 3 -3 
L -3 -3 
z
" id="mda08d019d0" style="stroke:#800080;stroke-linejoin:miter;"/>
    </defs>
    <g clip-path="url(#peb4c4f7331)">
     <use style="fill:#800080;stroke:#800080;stroke-linejoin:miter;" x="115.363636" xlink:href="#mda08d019d0" y="237.716243"/>
     <use style="fill:#800080;stroke:#800080;stroke-linejoin:miter;" x="178.772727" xlink:href="#mda08d019d0" y="126.93291"/>
     <use style="fill:#800080;stroke:#800080;stroke-linejoin:miter;" x="242.181818" xlink:href="#mda08d019d0" y="125.801449"/>
     <use style="fill:#800080;stroke:#800080;stroke-linejoin:miter;" x="305.590909" xlink:href="#mda08d019d0" y="112.86493"/>
     <use style="fill:#800080;stroke:#800080;stroke-linejoin:miter;" x="369" xlink:href="#mda08d019d0" y="109.690616"/>
     <use style="fill:#800080;stroke:#800080;stroke-linejoin:miter;" x="432.409091" xlink:href="#mda08d019d0" y="99.983891"/>
     <use style="fill:#800080;stroke:#800080;stroke-linejoin:miter;" x="495.818182" xlink:href="#mda08d019d0" y="84.872711"/>
     <use style="fill:#800080;stroke:#800080;stroke-linejoin:miter;" x="559.227273" xlink:href="#mda08d019d0" y="78.400441"/>
     <use style="fill:#800080;stroke:#800080;stroke-linejoin:miter;" x="622.636364" xlink:href="#mda08d019d0" y="78.40917"/>
    </g>
   </g>
   <g id="patch_3">
    <path d="M 90 256.32 
L 90 34.56 
" style="fill:none;stroke:#000000;stroke-linecap:square;stroke-linejoin:miter;stroke-width:0.8;"/>
   </g>
   <g id="patch_4">
    <path d="M 90 256.32 
L 648 256.32 
" style="fill:none;stroke:#000000;stroke-linecap:square;stroke-linejoin:miter;stroke-width:0.8;"/>
   </g>
   <g id="legend_1">
    <g id="patch_5">
     <path d="M 554.968125 251.32 
L 641 251.32 
Q 643 251.32 643 249.32 
L 643 170.375 
Q 643 168.375 641 168.375 
L 554.968125 168.375 
Q 552.968125 168.375 552.968125 170.375 
L 552.968125 249.32 
Q 552.968125 251.32 554.968125 251.32 
z
" style="fill:#ffffff;opacity:0.8;stroke:#cccccc;stroke-linejoin:miter;"/>
    </g>
    <g id="line2d_38">
     <path d="M 556.968125 177.464375 
L 576.968125 177.464375 
" style="fill:none;stroke:#ffa500;stroke-linecap:square;stroke-width:1.5;"/>
    </g>
    <g id="line2d_39">
     <g>
      <use style="fill:#ffa500;stroke:#ffa500;" x="566.968125" xlink:href="#m3b51cde22d" y="177.464375"/>
     </g>
    </g>
    <g id="text_18">
     <!-- Accuracy -->
     <g transform="translate(584.968125 180.964375)scale(0.12 -0.12)">
      <defs>
       <path d="M 4597 0 
L 3591 0 
L 3191 1041 
L 1359 1041 
L 981 0 
L 0 0 
L 1784 4581 
L 2763 4581 
L 4597 0 
z
M 2894 1813 
L 2263 3513 
L 1644 1813 
L 2894 1813 
z
" id="Arial-BoldMT-41" transform="scale(0.015625)"/>
       <path d="M 44 3319 
L 978 3319 
L 1772 963 
L 2547 3319 
L 3456 3319 
L 2284 125 
L 2075 -453 
Q 1959 -744 1854 -897 
Q 1750 -1050 1614 -1145 
Q 1478 -1241 1279 -1294 
Q 1081 -1347 831 -1347 
Q 578 -1347 334 -1294 
L 256 -606 
Q 463 -647 628 -647 
Q 934 -647 1081 -467 
Q 1228 -288 1306 -9 
L 44 3319 
z
" id="Arial-BoldMT-79" transform="scale(0.015625)"/>
      </defs>
      <use xlink:href="#Arial-BoldMT-41"/>
      <use x="72.216797" xlink:href="#Arial-BoldMT-63"/>
      <use x="127.832031" xlink:href="#Arial-BoldMT-63"/>
      <use x="183.447266" xlink:href="#Arial-BoldMT-75"/>
      <use x="244.53125" xlink:href="#Arial-BoldMT-72"/>
      <use x="283.447266" xlink:href="#Arial-BoldMT-61"/>
      <use x="339.0625" xlink:href="#Arial-BoldMT-63"/>
      <use x="394.677734" xlink:href="#Arial-BoldMT-79"/>
     </g>
    </g>
    <g id="line2d_40">
     <path d="M 556.968125 193.579375 
L 576.968125 193.579375 
" style="fill:none;stroke:#008000;stroke-linecap:square;stroke-width:1.5;"/>
    </g>
    <g id="line2d_41">
     <g>
      <use style="fill:#008000;stroke:#008000;stroke-linejoin:miter;" x="566.968125" xlink:href="#m530a252a3e" y="193.579375"/>
     </g>
    </g>
    <g id="text_19">
     <!-- Precision -->
     <g transform="translate(584.968125 197.079375)scale(0.12 -0.12)">
      <defs>
       <path d="M 466 0 
L 466 4581 
L 1950 4581 
Q 2794 4581 3050 4513 
Q 3444 4409 3709 4064 
Q 3975 3719 3975 3172 
Q 3975 2750 3822 2462 
Q 3669 2175 3433 2011 
Q 3197 1847 2953 1794 
Q 2622 1728 1994 1728 
L 1391 1728 
L 1391 0 
L 466 0 
z
M 1391 3806 
L 1391 2506 
L 1897 2506 
Q 2444 2506 2628 2578 
Q 2813 2650 2917 2803 
Q 3022 2956 3022 3159 
Q 3022 3409 2875 3571 
Q 2728 3734 2503 3775 
Q 2338 3806 1838 3806 
L 1391 3806 
z
" id="Arial-BoldMT-50" transform="scale(0.015625)"/>
      </defs>
      <use xlink:href="#Arial-BoldMT-50"/>
      <use x="66.699219" xlink:href="#Arial-BoldMT-72"/>
      <use x="105.615234" xlink:href="#Arial-BoldMT-65"/>
      <use x="161.230469" xlink:href="#Arial-BoldMT-63"/>
      <use x="216.845703" xlink:href="#Arial-BoldMT-69"/>
      <use x="244.628906" xlink:href="#Arial-BoldMT-73"/>
      <use x="300.244141" xlink:href="#Arial-BoldMT-69"/>
      <use x="328.027344" xlink:href="#Arial-BoldMT-6f"/>
      <use x="389.111328" xlink:href="#Arial-BoldMT-6e"/>
     </g>
    </g>
    <g id="line2d_42">
     <path d="M 556.968125 209.536875 
L 576.968125 209.536875 
" style="fill:none;stroke:#ff0000;stroke-linecap:square;stroke-width:1.5;"/>
    </g>
    <g id="line2d_43">
     <g>
      <use style="fill:#ff0000;stroke:#ff0000;" x="566.968125" xlink:href="#m49029521b7" y="209.536875"/>
     </g>
    </g>
    <g id="text_20">
     <!-- Recall -->
     <g transform="translate(584.968125 213.036875)scale(0.12 -0.12)">
      <defs>
       <path d="M 469 0 
L 469 4581 
L 2416 4581 
Q 3150 4581 3483 4457 
Q 3816 4334 4016 4018 
Q 4216 3703 4216 3297 
Q 4216 2781 3912 2445 
Q 3609 2109 3006 2022 
Q 3306 1847 3501 1637 
Q 3697 1428 4028 894 
L 4588 0 
L 3481 0 
L 2813 997 
Q 2456 1531 2325 1670 
Q 2194 1809 2047 1861 
Q 1900 1913 1581 1913 
L 1394 1913 
L 1394 0 
L 469 0 
z
M 1394 2644 
L 2078 2644 
Q 2744 2644 2909 2700 
Q 3075 2756 3169 2893 
Q 3263 3031 3263 3238 
Q 3263 3469 3139 3611 
Q 3016 3753 2791 3791 
Q 2678 3806 2116 3806 
L 1394 3806 
L 1394 2644 
z
" id="Arial-BoldMT-52" transform="scale(0.015625)"/>
      </defs>
      <use xlink:href="#Arial-BoldMT-52"/>
      <use x="72.216797" xlink:href="#Arial-BoldMT-65"/>
      <use x="127.832031" xlink:href="#Arial-BoldMT-63"/>
      <use x="183.447266" xlink:href="#Arial-BoldMT-61"/>
      <use x="239.0625" xlink:href="#Arial-BoldMT-6c"/>
      <use x="266.845703" xlink:href="#Arial-BoldMT-6c"/>
     </g>
    </g>
    <g id="line2d_44">
     <path d="M 556.968125 225.494375 
L 576.968125 225.494375 
" style="fill:none;stroke:#0000ff;stroke-linecap:square;stroke-width:1.5;"/>
    </g>
    <g id="line2d_45">
     <g>
      <use style="fill:#0000ff;stroke:#0000ff;stroke-linejoin:bevel;" x="566.968125" xlink:href="#mc186285532" y="225.494375"/>
     </g>
    </g>
    <g id="text_21">
     <!-- F1-score -->
     <g transform="translate(584.968125 228.994375)scale(0.12 -0.12)">
      <defs>
       <path d="M 472 0 
L 472 4581 
L 3613 4581 
L 3613 3806 
L 1397 3806 
L 1397 2722 
L 3309 2722 
L 3309 1947 
L 1397 1947 
L 1397 0 
L 472 0 
z
" id="Arial-BoldMT-46" transform="scale(0.015625)"/>
       <path d="M 359 1222 
L 359 2100 
L 2084 2100 
L 2084 1222 
L 359 1222 
z
" id="Arial-BoldMT-2d" transform="scale(0.015625)"/>
      </defs>
      <use xlink:href="#Arial-BoldMT-46"/>
      <use x="61.083984" xlink:href="#Arial-BoldMT-31"/>
      <use x="116.699219" xlink:href="#Arial-BoldMT-2d"/>
      <use x="150" xlink:href="#Arial-BoldMT-73"/>
      <use x="205.615234" xlink:href="#Arial-BoldMT-63"/>
      <use x="261.230469" xlink:href="#Arial-BoldMT-6f"/>
      <use x="322.314453" xlink:href="#Arial-BoldMT-72"/>
      <use x="361.230469" xlink:href="#Arial-BoldMT-65"/>
     </g>
    </g>
    <g id="line2d_46">
     <path d="M 556.968125 241.451875 
L 576.968125 241.451875 
" style="fill:none;stroke:#800080;stroke-linecap:square;stroke-width:1.5;"/>
    </g>
    <g id="line2d_47">
     <g>
      <use style="fill:#800080;stroke:#800080;stroke-linejoin:miter;" x="566.968125" xlink:href="#mda08d019d0" y="241.451875"/>
     </g>
    </g>
    <g id="text_22">
     <!-- Kappa -->
     <g transform="translate(584.968125 244.951875)scale(0.12 -0.12)">
      <defs>
       <path d="M 478 0 
L 478 4581 
L 1403 4581 
L 1403 2547 
L 3272 4581 
L 4516 4581 
L 2791 2797 
L 4609 0 
L 3413 0 
L 2153 2150 
L 1403 1384 
L 1403 0 
L 478 0 
z
" id="Arial-BoldMT-4b" transform="scale(0.015625)"/>
       <path d="M 434 3319 
L 1253 3319 
L 1253 2831 
Q 1413 3081 1684 3237 
Q 1956 3394 2288 3394 
Q 2866 3394 3269 2941 
Q 3672 2488 3672 1678 
Q 3672 847 3265 386 
Q 2859 -75 2281 -75 
Q 2006 -75 1782 34 
Q 1559 144 1313 409 
L 1313 -1263 
L 434 -1263 
L 434 3319 
z
M 1303 1716 
Q 1303 1156 1525 889 
Q 1747 622 2066 622 
Q 2372 622 2575 867 
Q 2778 1113 2778 1672 
Q 2778 2194 2568 2447 
Q 2359 2700 2050 2700 
Q 1728 2700 1515 2451 
Q 1303 2203 1303 1716 
z
" id="Arial-BoldMT-70" transform="scale(0.015625)"/>
      </defs>
      <use xlink:href="#Arial-BoldMT-4b"/>
      <use x="72.216797" xlink:href="#Arial-BoldMT-61"/>
      <use x="127.832031" xlink:href="#Arial-BoldMT-70"/>
      <use x="188.916016" xlink:href="#Arial-BoldMT-70"/>
      <use x="250" xlink:href="#Arial-BoldMT-61"/>
     </g>
    </g>
   </g>
  </g>
 </g>
 <defs>
  <clipPath id="peb4c4f7331">
   <rect height="221.76" width="558" x="90" y="34.56"/>
  </clipPath>
 </defs>
</svg>
